<svg width="1000" height="1000" viewBox="0 0 1000 1000" fill="none" xmlns="http://www.w3.org/2000/svg">
    <g clip-path="url(#clip0_1207_428)">
        <circle cx="500" cy="500" r="500" fill="#292524"/>
        <g clip-path="url(#clip1_1207_428)">
            <path d="M693.875 765.659L827.208 534.718C833.043 524.588 836.111 513.101 836.105 501.41C836.099 489.719 833.019 478.235 827.174 468.111L691.768 235.974C685.917 225.84 677.501 217.424 667.366 211.573C657.232 205.721 645.735 202.641 634.033 202.641L365.294 201.444C353.603 201.444 342.117 204.519 331.99 210.359C321.862 216.199 313.449 224.6 307.593 234.718L174.259 465.659C168.424 475.789 165.356 487.276 165.362 498.967C165.368 510.658 168.448 522.141 174.294 532.266L309.7 764.403C315.551 774.537 323.967 782.953 334.101 788.804C344.236 794.656 355.732 797.736 367.435 797.736L636.174 798.933C647.865 798.933 659.35 795.858 669.478 790.018C679.605 784.178 688.019 775.777 693.875 765.659Z"
                  stroke="white" stroke-width="66.6667" stroke-linecap="round" stroke-linejoin="round"/>
            <path d="M505.859 208.634L586.438 349.919L749.084 349.06" stroke="white" stroke-width="66.6667"
                  stroke-linecap="round" stroke-linejoin="round"/>
            <path d="M243.407 643.4L327.576 497.615L240.887 350.187" stroke="white" stroke-width="66.6667"
                  stroke-linecap="round" stroke-linejoin="round"/>
            <path d="M760.495 650.18L589.093 645.557L507.552 786.789" stroke="white" stroke-width="66.6667"
                  stroke-linecap="round" stroke-linejoin="round"/>
            <path d="M332.684 209.18L500.53 500.461L836.71 500.18" stroke="white" stroke-width="66.6667"
                  stroke-linecap="round" stroke-linejoin="round"/>
            <path d="M349.02 771.702L500.648 500.187" stroke="white" stroke-width="66.6667" stroke-linecap="round"
                  stroke-linejoin="round"/>
        </g>
    </g>
    <defs>
        <clipPath id="clip0_1207_428">
            <rect width="1000" height="1000" fill="white"/>
        </clipPath>
        <clipPath id="clip1_1207_428">
            <rect width="800" height="800" fill="white" transform="translate(100 100)"/>
        </clipPath>
    </defs>
</svg>
